<?xml version="1.0" standalone="no"?>
<!DOCTYPE svg PUBLIC "-//W3C//DTD SVG 20010904//EN"
 "http://www.w3.org/TR/2001/REC-SVG-20010904/DTD/svg10.dtd">
<svg version="1.0" xmlns="http://www.w3.org/2000/svg"
 width="215.000000pt" height="215.000000pt" viewBox="0 0 215.000000 215.000000"
 preserveAspectRatio="xMidYMid meet">
<metadata>
Created by potrace 1.11, written by Peter Selinger 2001-2013
</metadata>
<g transform="translate(0.000000,215.000000) scale(0.100000,-0.100000)"
fill="#000000" stroke="none">
<path d="M783 1957 c-71 -28 -120 -94 -130 -177 -5 -40 -1 -59 20 -102 16 -32
39 -60 56 -71 49 -29 940 -307 983 -307 53 0 98 21 135 63 40 46 56 97 51 162
-5 61 -39 115 -88 140 -46 24 -910 295 -955 300 -22 3 -54 -1 -72 -8z m164
-75 c115 -81 54 -262 -87 -262 -38 0 -77 19 -110 55 -21 23 -25 36 -25 90 0
68 12 90 70 127 38 25 111 20 152 -10z"/>
<path d="M461 1415 c-102 -136 -187 -259 -192 -279 -20 -72 34 -136 102 -121
48 11 76 42 260 286 l178 238 -37 12 c-49 16 -90 45 -111 80 l-17 28 -183
-244z"/>
<path d="M1896 1382 c-36 -69 -116 -122 -184 -122 -11 0 -52 11 -90 25 -38 14
-74 25 -79 25 -10 0 -25 -121 -38 -290 -12 -165 -41 -227 -135 -292 l-53 -38
67 0 c79 0 79 17 2 -161 l-53 -124 -64 -1 c-35 -1 -67 0 -71 2 -3 2 20 66 53
141 32 75 58 138 56 140 -2 1 -32 -12 -68 -31 l-64 -33 -47 -109 -47 -109 -43
-2 c-24 -1 -48 -2 -55 -2 -15 -1 -7 -75 13 -113 l15 -28 503 0 503 0 6 67 c7
68 -1 87 -29 76 -7 -2 -19 -1 -27 4 -11 6 -5 29 34 118 48 109 48 111 49 222
0 220 -42 460 -107 603 l-30 65 -17 -33z m59 -694 c2 -2 -24 -66 -56 -144
l-60 -141 -70 0 c-67 -1 -69 0 -63 21 12 36 105 250 114 261 7 8 127 11 135 3z
m-305 -133 c-32 -75 -61 -139 -64 -143 -11 -10 -136 -11 -136 -1 0 5 26 70 57
144 l57 135 72 0 72 0 -58 -135z"/>
<path d="M251 989 c-11 -12 -23 -34 -26 -49 -6 -25 -11 -28 -65 -34 -32 -4
-64 -13 -71 -22 -23 -28 -5 -164 32 -246 20 -41 35 -65 37 -55 5 24 52 23 52
0 1 -10 30 72 67 182 l65 199 -26 23 c-33 28 -40 29 -65 2z"/>
<path d="M166 494 c0 -29 3 -57 8 -61 12 -13 26 20 26 63 0 31 -4 43 -17 46
-16 4 -18 -2 -17 -48z"/>
<path d="M970 210 c0 -20 7 -20 548 -20 302 0 551 3 555 6 3 3 3 12 0 20 -4
12 -92 14 -554 14 -542 0 -549 0 -549 -20z"/>
</g>
</svg>
